<svg width="21" height="18" viewBox="0 0 21 18" fill="none" xmlns="http://www.w3.org/2000/svg">
<path d="M15.225 0C12.999 0 11.424 1.18588 10.5 2.47765C9.576 1.18588 8.001 0 5.775 0C2.499 0 0 2.71059 0 5.82353C0 10.0588 5.082 13.0659 10.5 18C15.918 13.0659 21 10.0588 21 5.82353C21 2.71059 18.501 0 15.225 0ZM10.5 12.3882C7.455 9.80471 4.2 7.30588 4.2 5.82353C4.2 4.91294 4.935 4.23529 5.775 4.23529C6.426 4.23529 6.867 4.59529 7.308 5.01882L10.5 8.04706L13.692 5.01882C14.133 4.59529 14.574 4.23529 15.225 4.23529C16.065 4.23529 16.8 4.91294 16.8 5.82353C16.8 7.30588 13.545 9.80471 10.5 12.3882Z" fill="#B2B0B0"/>
</svg>
