<svg width="14" height="14" viewBox="0 0 14 14" fill="none" xmlns="http://www.w3.org/2000/svg">
<circle cx="7" cy="7" r="6.5" stroke="#523F6D"/>
<path d="M7 5.90039C6.39249 5.90039 5.90039 6.39249 5.90039 7C5.90039 7.60751 6.39249 8.09961 7 8.09961C7.60751 8.09961 8.09961 7.60751 8.09961 7C8.09961 6.39249 7.60751 5.90039 7 5.90039ZM11.0996 7.40039C11.0994 8.31016 10.4591 9.09961 9.59961 9.09961C9.13325 9.09948 8.73002 8.86401 8.45996 8.50488C8.08213 8.87165 7.56852 9.09961 7 9.09961C5.8402 9.09961 4.90039 8.1598 4.90039 7C4.90039 5.8402 5.8402 4.90039 7 4.90039C8.05869 4.90039 8.93444 5.68338 9.0791 6.70215L9.09766 6.90918L9.09863 6.91113H9.09766L9.09961 6.99805V7.40039C9.09969 7.60784 9.16554 7.78606 9.26172 7.91016C9.35828 8.03458 9.48108 8.09947 9.59961 8.09961C9.82413 8.09961 10.0729 7.85391 10.0977 7.46094L10.0996 7.40039V7C10.0996 5.28792 8.71208 3.90039 7 3.90039C5.28792 3.90039 3.90039 5.28792 3.90039 7C3.90039 8.71208 5.28792 10.0996 7 10.0996C7.45077 10.0996 7.88699 10.0042 8.28711 9.82129C8.53815 9.70651 8.83527 9.81645 8.9502 10.0674C9.06502 10.3185 8.95426 10.6156 8.70312 10.7305C8.17292 10.9729 7.59492 11.0996 7 11.0996C4.73563 11.0996 2.90039 9.26437 2.90039 7C2.90039 4.73563 4.73563 2.90039 7 2.90039C9.15658 2.90039 10.9245 4.56499 11.0879 6.67969L11.0986 6.88574V6.88672L11.0996 6.99902V7.40039Z" fill="#523F6D" stroke="#523F6D" stroke-width="0.2"/>
</svg>
