<svg width="13" height="13" viewBox="0 0 13 13" fill="none" xmlns="http://www.w3.org/2000/svg">
<path fill-rule="evenodd" clip-rule="evenodd" d="M13.0001 6.33277C13.0001 9.82963 10.1429 12.6651 6.61847 12.6651C5.49919 12.6651 4.44763 12.3792 3.53346 11.8771L0 13L1.15176 9.60269C0.570555 8.64826 0.236354 7.52898 0.236354 6.33283C0.236354 2.83525 3.09344 1.13012e-09 6.61847 1.13012e-09C10.1429 -6.5362e-05 13.0001 2.83519 13.0001 6.33277ZM6.61847 1.00855C3.65916 1.00855 1.25268 3.39659 1.25268 6.33277C1.25268 7.49715 1.63205 8.57636 2.27464 9.45438L1.6046 11.4313L3.66615 10.7762C4.51313 11.3319 5.52802 11.6564 6.61841 11.6564C9.57648 11.6564 11.9836 9.26816 11.9836 6.3327C11.9837 3.39659 9.57654 1.00855 6.61847 1.00855ZM9.84107 7.79128C9.80152 7.72644 9.69714 7.68762 9.54131 7.61003C9.38477 7.53257 8.61525 7.15667 8.47204 7.10523C8.32883 7.05359 8.22379 7.02758 8.12012 7.18269C8.01574 7.33799 7.71585 7.68768 7.62434 7.79135C7.53336 7.89514 7.44231 7.90782 7.28583 7.83017C7.12909 7.75272 6.62481 7.5882 6.02752 7.06013C5.56279 6.64808 5.24879 6.14041 5.15708 5.9851C5.06629 5.83 5.14806 5.74607 5.22552 5.66861C5.29611 5.59874 5.38219 5.48736 5.46043 5.3971C5.5388 5.30611 5.56482 5.24107 5.61698 5.13747C5.66914 5.03381 5.64319 4.94354 5.60364 4.86589C5.56482 4.78843 5.25173 4.02454 5.1212 3.71341C4.99158 3.40319 4.86099 3.41483 4.76928 3.41483C4.6783 3.41483 4.5094 3.44189 4.5094 3.44189C4.5094 3.44189 4.19579 3.48072 4.05264 3.63602C3.90943 3.79113 3.50536 4.16703 3.50536 4.93021C3.50536 5.69397 4.06545 6.43245 4.14363 6.53533C4.222 6.63913 5.22552 8.25765 6.81606 8.87912C8.40661 9.50039 8.40661 9.29313 8.69349 9.26698C8.97985 9.24169 9.61883 8.8918 9.74936 8.52923C9.87983 8.16646 9.87983 7.8556 9.84107 7.79128Z" fill="#01C74B"/>
</svg>
