<svg width="14" height="14" viewBox="0 0 14 14" fill="none" xmlns="http://www.w3.org/2000/svg">
<path d="M4.73047 3.90268V3.90366C4.80341 4.07753 4.9274 4.37743 5.04004 4.64877C5.12451 4.85226 5.21282 5.06089 5.26074 5.16928C5.22964 5.23158 5.22336 5.24406 5.19531 5.2767C5.07474 5.41581 5.02 5.49172 4.95703 5.55405L4.95508 5.556C4.92578 5.58526 4.79689 5.70478 4.73145 5.87924C4.64763 6.10285 4.68831 6.32736 4.7998 6.51791L4.80078 6.51987C4.91198 6.70817 5.29715 7.33316 5.87891 7.84897H5.87988C6.6139 8.49787 7.27096 8.72277 7.40332 8.78745V8.78842C7.52371 8.84816 7.69968 8.91629 7.90332 8.89194C8.12809 8.86498 8.28331 8.73983 8.38281 8.62631L8.38184 8.62534C8.46175 8.53473 8.70903 8.24777 8.875 8.03159C8.90556 8.04519 8.94122 8.06186 8.98145 8.08041C9.08479 8.12807 9.21151 8.18789 9.33984 8.24936L9.94141 8.54135C9.96728 8.55422 9.99279 8.5655 10.0156 8.57651C10.0071 8.64975 9.99304 8.73953 9.96484 8.83823L9.92676 8.95737C9.92327 8.96705 9.9023 9.00801 9.83789 9.07358C9.77671 9.13583 9.69411 9.20176 9.59863 9.26303C9.50397 9.32377 9.40622 9.37416 9.32031 9.40952C9.27758 9.42709 9.24012 9.43939 9.21094 9.4476C9.19662 9.45162 9.18513 9.45474 9.17676 9.45639C9.1689 9.45793 9.16504 9.45834 9.16504 9.45834H9.16406C9.05083 9.46866 8.90573 9.50655 8.89453 9.50912C8.86594 9.515 8.82931 9.52154 8.75098 9.51401C8.5619 9.49579 8.1706 9.4022 7.2793 9.05405C5.65423 8.41886 4.61854 6.751 4.49121 6.58237L4.49023 6.58139L4.35938 6.3978C4.2964 6.30301 4.21983 6.17789 4.14551 6.03256C3.99339 5.73507 3.87402 5.39468 3.87402 5.07846C3.87413 4.4393 4.18841 4.14231 4.34961 3.96909C4.34586 3.97239 4.3498 3.96877 4.36621 3.9603C4.3874 3.9494 4.41669 3.93754 4.45117 3.92709C4.48485 3.91691 4.51705 3.91002 4.54004 3.90561C4.55114 3.90348 4.55987 3.90241 4.56445 3.9017C4.56594 3.90148 4.56687 3.9008 4.56738 3.90073H4.56445L4.58203 3.89877H4.58301C4.58395 3.89863 4.58573 3.89813 4.58789 3.8978C4.59224 3.89713 4.59901 3.8961 4.60742 3.89487C4.62437 3.89238 4.64792 3.88935 4.67383 3.88608C4.68994 3.88405 4.70503 3.88267 4.71875 3.8812C4.72184 3.88806 4.7271 3.89461 4.73047 3.90268Z" fill="#01C74B" stroke="#38A5E9"/>
<circle cx="6.74833" cy="6.74833" r="6.24833" stroke="#38A5E9"/>
</svg>
